<svg width="16" height="16" viewBox="0 0 16 16" fill="none" xmlns="http://www.w3.org/2000/svg">
<g clip-path="url(#clip0)">
<path d="M11.0362 13.0661C10.1762 13.0661 9.40448 12.8677 8.72094 12.4708C8.03739 12.0629 7.49716 11.5116 7.10026 10.8171C6.70336 10.1225 6.4994 9.3397 6.48837 8.46873V0.927633C6.48837 0.674058 6.56555 0.470096 6.7199 0.315746C6.88527 0.161396 7.08924 0.0842208 7.33179 0.0842208C7.58536 0.0842208 7.78932 0.161396 7.94367 0.315746C8.09802 0.470096 8.1752 0.674058 8.1752 0.927633V5.39275C8.56107 4.9297 9.02412 4.56588 9.56435 4.30128C10.1156 4.02566 10.7165 3.88784 11.3669 3.88784C12.1718 3.88784 12.8939 4.09181 13.5333 4.49973C14.1728 4.89663 14.6744 5.44237 15.0383 6.13694C15.4131 6.82049 15.6005 7.59775 15.6005 8.46873C15.6005 9.3397 15.3966 10.1225 14.9886 10.8171C14.5917 11.5116 14.0515 12.0629 13.368 12.4708C12.6844 12.8677 11.9072 13.0661 11.0362 13.0661ZM11.0362 11.5778C11.5985 11.5778 12.1001 11.4455 12.5411 11.1809C12.9821 10.9053 13.3294 10.5304 13.583 10.0563C13.8476 9.58225 13.9799 9.05305 13.9799 8.46873C13.9799 7.87338 13.8476 7.34418 13.583 6.88113C13.3294 6.41808 12.9821 6.05425 12.5411 5.78965C12.1001 5.51403 11.5985 5.37622 11.0362 5.37622C10.4849 5.37622 9.9833 5.51403 9.53127 5.78965C9.09027 6.05425 8.74299 6.41808 8.48941 6.88113C8.23584 7.34418 8.10905 7.87338 8.10905 8.46873C8.10905 9.05305 8.23584 9.58225 8.48941 10.0563C8.74299 10.5304 9.09027 10.9053 9.53127 11.1809C9.9833 11.4455 10.4849 11.5778 11.0362 11.5778Z" fill="#40A7BD"/>
<path d="M2.538 16.018C2.274 16.018 2.052 15.934 1.872 15.766C1.704 15.586 1.62 15.364 1.62 15.1V7.072C1.62 6.796 1.704 6.574 1.872 6.406C2.052 6.238 2.274 6.154 2.538 6.154C2.814 6.154 3.036 6.238 3.204 6.406C3.372 6.574 3.456 6.796 3.456 7.072V7.27C3.828 6.898 4.278 6.604 4.806 6.388C5.334 6.172 5.904 6.064 6.516 6.064C7.344 6.064 8.082 6.244 8.73 6.604C9.39 6.952 9.906 7.468 10.278 8.152C10.662 8.836 10.854 9.676 10.854 10.672V15.1C10.854 15.364 10.764 15.586 10.584 15.766C10.416 15.934 10.2 16.018 9.936 16.018C9.672 16.018 9.45 15.934 9.27 15.766C9.102 15.586 9.018 15.364 9.018 15.1V10.672C9.018 9.652 8.742 8.908 8.19 8.44C7.65 7.96 6.972 7.72 6.156 7.72C5.652 7.72 5.196 7.822 4.788 8.026C4.38 8.23 4.056 8.506 3.816 8.854C3.576 9.19 3.456 9.58 3.456 10.024V15.1C3.456 15.364 3.372 15.586 3.204 15.766C3.036 15.934 2.814 16.018 2.538 16.018Z" fill="#FF4949"/>
</g>
<defs>
<clipPath id="clip0">
<rect width="16" height="16" fill="white"/>
</clipPath>
</defs>
</svg>
